PathFileType	4	(X/Y/Z)	/Users/itak/Documents/Research/Walk-IL/dataset/trc/00390_00012.trc
DataRate	CameraRate	NumFrames	NumMarkers	Units	OrigDataRate	OrigDataStartFrame	OrigNumFrames
100.000000	100.000000	4	55	mm	100.000000	147	589
Frame#	Time	LPSI			L3			STRN			T10			C7			CLAV			RBAK			LBAK			LSHO			LUPA			LAEL			LAOL			LWTS			LWPS			LFRA			LIFD			LHPS			LHTS			RSHO			RUPA			RAEL			RAOL			RWTS			RWPS			RFRA			RIFD			RHTS			RHPS			RBHD			LFHD			RFHD			LBHD			LHIP			RHIP			RASI			LASI			LKNE			LTHI			LANK			LTIP			LTOE			LMT5			LHEE			RKNE			RTHI			RANK			RTIP			RTOE			RMT1			RMT5			RHEE			RPSI			LMT1			*53			*54			
		X1	Y1	Z1	X2	Y2	Z2	X3	Y3	Z3	X4	Y4	Z4	X5	Y5	Z5	X6	Y6	Z6	X7	Y7	Z7	X8	Y8	Z8	X9	Y9	Z9	X10	Y10	Z10	X11	Y11	Z11	X12	Y12	Z12	X13	Y13	Z13	X14	Y14	Z14	X15	Y15	Z15	X16	Y16	Z16	X17	Y17	Z17	X18	Y18	Z18	X19	Y19	Z19	X20	Y20	Z20	X21	Y21	Z21	X22	Y22	Z22	X23	Y23	Z23	X24	Y24	Z24	X25	Y25	Z25	X26	Y26	Z26	X27	Y27	Z27	X28	Y28	Z28	X29	Y29	Z29	X30	Y30	Z30	X31	Y31	Z31	X32	Y32	Z32	X33	Y33	Z33	X34	Y34	Z34	X35	Y35	Z35	X36	Y36	Z36	X37	Y37	Z37	X38	Y38	Z38	X39	Y39	Z39	X40	Y40	Z40	X41	Y41	Z41	X42	Y42	Z42	X43	Y43	Z43	X44	Y44	Z44	X45	Y45	Z45	X46	Y46	Z46	X47	Y47	Z47	X48	Y48	Z48	X49	Y49	Z49	X50	Y50	Z50	X51	Y51	Z51	X52	Y52	Z52	X53	Y53	Z53	X54	Y54	Z54	X55	Y55	Z55	

148	1.47	923.312255859375	974.0679931640625	-121.8206405639648	932.7369384765625	1047.470336914062	-53.88767623901367	1166.091186523438	1209.93603515625	-58.57632446289062	927.4192504882812	1147.837036132812	-59.92873001098633	949.2791748046875	1399.898803710938	-72.16343688964844	1109.108520507812	1327.72607421875	-62.05163192749023	912.5047607421875	1251.9951171875	-2.441129207611084	938.7997436523438	1360.534057617188	-175.8686828613281	1027.880859375	1377.784545898438	-224.7331237792969	1014.523986816406	1257.804321289062	-292.5116577148438	1054.420043945312	1061.598022460938	-306.7064208984375	992.3429565429688	1038.588500976562	-250.3216552734375	1153.828369140625	858.5595703125	-230.6214904785156	1123.684448242188	836.9539184570312	-304.701171875	1083.421997070312	958.7986450195312	-308.1572570800781	1168.009521484375	679.4388427734375	-224.8689727783203	1142.460083007812	754.659423828125	-289.0104370117188	1184.179077148438	764.1593627929688	-240.9409332275391	1007.940185546875	1381.128295898438	90.24167633056641	999.0569458007812	1314.547729492188	149.3441925048828	1028.18115234375	1052.569946289062	185.8094635009766	1004.028442382812	1038.75634765625	96.74650573730469	1166.154418945312	845.8018188476562	141.4090118408203	1130.748901367188	831.6080932617188	204.8598480224609	1058.886962890625	988.6614379882812	197.5587921142578	1176.489379882812	673.476318359375	142.8357543945312	1193.116577148438	742.718017578125	158.4523468017578	1139.56298828125	742.5935668945312	202.6282653808594	968.1051635742188	1587.888916015625	-1.277575969696045	1143.647705078125	1602.199462890625	-93.94103240966797	1099.660522460938	1605.8173828125	21.01861381530762	1009.822143554688	1580.255004882812	-155.9668273925781	1006.230163574219	959.8338623046875	-237.2509460449219	1021.970520019531	955.8131713867188	121.2887344360352	1150.738403320312	964.0005493164062	61.9349365234375	1125.625366210938	957.5714111328125	-200.72998046875	1032.720947265625	466.8780822753906	-222.8246459960938	1032.464599609375	609.5294189453125	-231.9022369384766	934.2073974609375	30.79909706115723	-180.9630126953125	977.1201782226562	238.4005889892578	-214.4013824462891	1149.956298828125	34.38962936401367	-122.6427993774414	1061.897216796875	31.54504203796387	-194.8424682617188	897.8392333984375	29.12481689453125	-123.0127410888672	1038.923706054688	468.5100402832031	102.6596221923828	1091.047485351562	728.4309692382812	120.6398544311523	980.6285400390625	45.68052291870117	69.74366760253906	1042.469482421875	342.5718078613281	87.25460815429688	1157.276733398438	28.50899124145508	-4.552006244659424	1079.41162109375	34.70491409301758	-28.8411865234375	1065.964477539062	38.13029479980469	68.67456817626953	905.6227416992188	31.80875396728516	20.29972648620605	933.6610107421875	981.452392578125	9.095892906188965	1070.816162109375	36.22407150268555	-91.30142211914062	nan	nan	nan	nan	nan	nan	
149	1.48	923.1630249023438	974.07373046875	-121.6249847412109	932.9453125	1047.420654296875	-53.60252380371094	1165.944580078125	1209.950805664062	-58.38922119140625	927.5303344726562	1147.780151367188	-59.72378540039062	949.0957641601562	1399.912963867188	-71.92878723144531	1108.907104492188	1327.7021484375	-61.83669281005859	912.52880859375	1251.9736328125	-2.164321184158325	938.6209106445312	1360.542724609375	-175.6100921630859	1027.67626953125	1377.853637695312	-224.5106964111328	1014.305541992188	1257.8525390625	-292.3073425292969	1054.218139648438	1061.685546875	-306.5503845214844	992.1563720703125	1038.613159179688	-250.1611938476562	1153.739135742188	858.5833129882812	-230.5273284912109	1123.55615234375	837.0536499023438	-304.6258850097656	1083.224853515625	958.8806762695312	-307.9898376464844	1167.814453125	679.2918701171875	-224.6377410888672	1142.363159179688	754.71533203125	-288.9314270019531	1184.124755859375	764.23193359375	-240.8304443359375	1007.756164550781	1381.085327148438	90.46947479248047	998.9738159179688	1314.502319335938	149.5978088378906	1028.141723632812	1052.530029296875	186.0120849609375	1003.914794921875	1038.680053710938	96.92335510253906	1166.058471679688	845.7719116210938	141.5270080566406	1130.627319335938	831.5585327148438	204.9662170410156	1058.783081054688	988.6103515625	197.7182159423828	1176.379760742188	673.4295654296875	142.9161071777344	1193.026123046875	742.6216430664062	158.5570983886719	1139.536743164062	742.5823974609375	202.7576751708984	967.8755493164062	1587.921752929688	-0.9687021374702454	1143.452392578125	1602.140869140625	-93.72444152832031	1099.45751953125	1605.80517578125	21.10162925720215	1009.58056640625	1580.291381835938	-155.6758270263672	1006.087646484375	959.8380737304688	-237.1050567626953	1022.003601074219	955.7457885742188	121.4174346923828	1150.634887695312	963.9873657226562	62.06683731079102	1125.568115234375	957.6592407226562	-200.6302337646484	1032.71826171875	466.8966674804688	-222.7590637207031	1032.410522460938	609.5398559570312	-231.8038635253906	934.2073364257812	30.80607986450195	-180.9579925537109	977.1192626953125	238.411376953125	-214.3599853515625	1149.961181640625	34.37196731567383	-122.6415252685547	1061.8955078125	31.54852867126465	-194.8375244140625	897.8433837890625	29.12441825866699	-123.0040664672852	1038.885375976562	468.4990234375	102.7841339111328	1090.939697265625	728.4935302734375	120.7317199707031	980.6183471679688	45.64580917358398	69.76685333251953	1042.422973632812	342.5543518066406	87.31928253173828	1157.246948242188	28.51765823364258	-4.565506458282471	1079.388427734375	34.70100784301758	-28.82221412658691	1065.959106445312	38.1221923828125	68.67933654785156	905.639404296875	31.83797073364258	20.322021484375	933.591796875	981.420654296875	9.27439022064209	1070.81640625	36.21855163574219	-91.29597473144531	nan	nan	nan	nan	nan	nan	
150	1.49	923.0275268554688	974.0745849609375	-121.4400405883789	933.0570068359375	1047.384399414062	-53.3330078125	1165.807983398438	1209.9833984375	-58.21026229858398	927.6288452148438	1147.7333984375	-59.51508712768555	948.912841796875	1399.92236328125	-71.67667388916016	1108.678100585938	1327.655517578125	-61.58813095092773	912.525390625	1251.954223632812	-1.880212664604187	938.4479370117188	1360.556396484375	-175.3560791015625	1027.480224609375	1377.935424804688	-224.2936248779297	1014.083312988281	1257.90771484375	-292.1005249023438	1054.016235351562	1061.762573242188	-306.39208984375	991.9717407226562	1038.641967773438	-249.9948577880859	1153.633666992188	858.6087646484375	-230.4338989257812	1123.415405273438	837.1710815429688	-304.5393371582031	1083.035034179688	958.9580688476562	-307.8246154785156	1167.62158203125	679.1819458007812	-224.4358520507812	1142.259155273438	754.764404296875	-288.8596801757812	1184.077880859375	764.303466796875	-240.7496948242188	1007.602233886719	1381.040283203125	90.71266937255859	998.91796875	1314.459106445312	149.8706665039062	1028.0947265625	1052.492797851562	186.2138671875	1003.775756835938	1038.6357421875	97.11835479736328	1165.96875	845.7430419921875	141.6384735107422	1130.511962890625	831.51220703125	205.0715026855469	1058.725219726562	988.5628662109375	197.8951721191406	1176.278442382812	673.3876953125	142.9902648925781	1192.941650390625	742.513671875	158.6478729248047	1139.502319335938	742.5712280273438	202.8761749267578	967.6279296875	1587.945190429688	-0.6533567905426025	1143.256103515625	1602.100463867188	-93.49859619140625	1099.253540039062	1605.781127929688	21.21916007995605	1009.340454101562	1580.338012695312	-155.3915252685547	1005.95361328125	959.8410034179688	-236.9541625976562	1022.073608398438	955.6709594726562	121.553596496582	1150.538696289062	963.9786376953125	62.20646667480469	1125.514526367188	957.77490234375	-200.5454254150391	1032.710815429688	466.9110107421875	-222.6879425048828	1032.362060546875	609.5565185546875	-231.7095336914062	934.2080688476562	30.81509780883789	-180.9539947509766	977.1126708984375	238.4246826171875	-214.3193511962891	1149.965576171875	34.35850524902344	-122.6373825073242	1061.89306640625	31.55171585083008	-194.8336944580078	897.8477172851562	29.12358856201172	-122.9944534301758	1038.857666015625	468.4900817871094	102.9048309326172	1090.845703125	728.58056640625	120.7837677001953	980.6076049804688	45.61540222167969	69.78827667236328	1042.372314453125	342.5364074707031	87.37545013427734	1157.190307617188	28.51560592651367	-4.581412792205811	1079.375244140625	34.70078277587891	-28.81155204772949	1065.9501953125	38.10993576049805	68.68638610839844	905.6332397460938	31.87062644958496	20.33882522583008	933.5177001953125	981.3912963867188	9.457718849182129	1070.81689453125	36.21311950683594	-91.29032897949219	nan	nan	nan	nan	nan	nan	
151	1.5	922.9061889648438	974.071533203125	-121.2689971923828	933.0523071289062	1047.364379882812	-53.09112548828125	1165.684204101562	1210.032104492188	-58.03900146484375	927.6954956054688	1147.70068359375	-59.30318832397461	948.7291870117188	1399.923461914062	-71.40265655517578	1108.430297851562	1327.594970703125	-61.31279373168945	912.4818725585938	1251.937622070312	-1.597160935401917	938.2777099609375	1360.575805664062	-175.1072387695312	1027.292602539062	1378.025146484375	-224.0820922851562	1013.855651855469	1257.968505859375	-291.8899230957031	1053.81689453125	1061.826293945312	-306.2281799316406	991.7907104492188	1038.675903320312	-249.8212585449219	1153.505615234375	858.635986328125	-230.3387756347656	1123.262573242188	837.302490234375	-304.4412841796875	1082.860229492188	959.0292358398438	-307.6629028320312	1167.443603515625	679.139404296875	-224.2835693359375	1142.144897460938	754.8099365234375	-288.79296875	1184.032958984375	764.3739624023438	-240.6996612548828	1007.48046875	1380.99365234375	90.97206878662109	998.8818969726562	1314.41650390625	150.1575164794922	1028.035034179688	1052.458740234375	186.4123687744141	1003.629516601562	1038.61865234375	97.32688903808594	1165.884033203125	845.7146606445312	141.7453002929688	1130.406127929688	831.4700927734375	205.17626953125	1058.708129882812	988.51904296875	198.0876770019531	1176.1865234375	673.353271484375	143.0610809326172	1192.861572265625	742.39697265625	158.7264862060547	1139.453735351562	742.5540771484375	202.9840087890625	967.3750610351562	1587.958374023438	-0.3349916636943817	1143.059814453125	1602.08154296875	-93.26712799072266	1099.05615234375	1605.74951171875	21.39066123962402	1009.096984863281	1580.387329101562	-155.1103668212891	1005.827819824219	959.8446044921875	-236.7975158691406	1022.175903320312	955.5945434570312	121.7018966674805	1150.447631835938	963.9739379882812	62.35502243041992	1125.44287109375	957.9024047851562	-200.4539184570312	1032.698608398438	466.9217529296875	-222.6101837158203	1032.317993164062	609.57958984375	-231.6182098388672	934.2106323242188	30.82560920715332	-180.950927734375	977.100341796875	238.4421081542969	-214.2796478271484	1149.969970703125	34.34979629516602	-122.6306457519531	1061.890014648438	31.55476760864258	-194.8308715820312	897.8517456054688	29.12261009216309	-122.9837112426758	1038.838989257812	468.4852294921875	103.0198669433594	1090.757690429688	728.6714477539062	120.7961273193359	980.597900390625	45.59121322631836	69.80629730224609	1042.31640625	342.5181274414062	87.42491912841797	1157.119262695312	28.50589942932129	-4.597945690155029	1079.36962890625	34.70250701904297	-28.80658531188965	1065.9375	38.09284973144531	68.6962890625	905.5987548828125	31.90606117248535	20.34795951843262	933.4362182617188	981.3659057617188	9.643331527709961	1070.817504882812	36.20774078369141	-91.28505706787109	nan	nan	nan	nan	nan	nan	
